<svg width="18" height="24" viewBox="0 0 18 24" fill="none" xmlns="http://www.w3.org/2000/svg">
<path d="M9 24C11.3869 24 13.6761 23.0518 15.364 21.364C17.0518 19.6761 18 17.3869 18 15C18 12.5175 16.317 10.644 14.352 8.457C12.381 6.264 10.125 3.7545 9 0C9 0 0 8.529 0 15C0 17.3869 0.948211 19.6761 2.63604 21.364C4.32387 23.0518 6.61305 24 9 24ZM6.969 6.969L8.031 8.031C7.596 8.466 6.339 9.9975 5.1705 12.336L3.8295 11.664C5.0595 9.2025 6.405 7.5345 6.969 6.969Z" fill="white" fill-opacity="0.6"/>
</svg>
