<svg width="11" height="10" viewBox="0 0 11 10" fill="none" xmlns="http://www.w3.org/2000/svg">
<path d="M9.73601 0.969934C9.80426 0.9003 9.88571 0.844981 9.9756 0.807217C10.0655 0.769452 10.162 0.75 10.2595 0.75C10.357 0.75 10.4535 0.769452 10.5434 0.807217C10.6333 0.844981 10.7148 0.9003 10.783 0.969934C11.069 1.25893 11.073 1.72593 10.793 2.01993L4.88001 9.00993C4.81288 9.08365 4.73141 9.1429 4.64059 9.18406C4.54977 9.22521 4.45151 9.2474 4.35182 9.24927C4.25213 9.25115 4.1531 9.23266 4.0608 9.19494C3.9685 9.15723 3.88487 9.10108 3.81501 9.02993L0.217011 5.38393C0.0782478 5.24242 0.000518799 5.05213 0.000518799 4.85393C0.000518799 4.65574 0.0782478 4.46545 0.217011 4.32393C0.285257 4.2543 0.366709 4.19898 0.456599 4.16122C0.546489 4.12345 0.64301 4.104 0.740511 4.104C0.838012 4.104 0.934533 4.12345 1.02442 4.16122C1.11431 4.19898 1.19576 4.2543 1.26401 4.32393L4.31601 7.41693L9.71601 0.991934C9.72223 0.984206 9.72891 0.976859 9.73601 0.969934Z" fill="#1C74D5"/>
</svg>
