<svg width="21" height="18" viewBox="0 0 21 18" fill="none" xmlns="http://www.w3.org/2000/svg">
<path d="M7.3125 0C6.26133 0 5.38945 0.720703 5.13984 1.69453C5.11172 1.69453 5.09062 1.6875 5.0625 1.6875C3.82148 1.6875 2.8125 2.69648 2.8125 3.9375C2.8125 4.10625 2.83359 4.27148 2.87227 4.42969C1.8457 4.85156 1.125 5.85703 1.125 7.03125C1.125 7.47422 1.2375 7.88555 1.4168 8.2582C0.573047 8.74336 0 9.64336 0 10.6875C0 11.8582 0.717188 12.8637 1.73672 13.2855C1.70508 13.4473 1.6875 13.6125 1.6875 13.7812C1.6875 15.1805 2.81953 16.3125 4.21875 16.3125C4.36289 16.3125 4.50352 16.2949 4.64062 16.2703C4.97813 17.2723 5.91328 18 7.03125 18C8.43047 18 9.5625 16.868 9.5625 15.4688V2.25C9.5625 1.00898 8.55352 0 7.3125 0ZM20.25 10.6875C20.25 9.64336 19.677 8.74336 18.8332 8.2582C19.016 7.88555 19.125 7.47422 19.125 7.03125C19.125 5.85703 18.4043 4.85156 17.3777 4.42969C17.4129 4.27148 17.4375 4.10625 17.4375 3.9375C17.4375 2.69648 16.4285 1.6875 15.1875 1.6875C15.1594 1.6875 15.1348 1.69453 15.1102 1.69453C14.8605 0.720703 13.9887 0 12.9375 0C11.6965 0 10.6875 1.00547 10.6875 2.25V15.4688C10.6875 16.868 11.8195 18 13.2188 18C14.3367 18 15.2719 17.2723 15.6094 16.2703C15.7465 16.2949 15.8871 16.3125 16.0312 16.3125C17.4305 16.3125 18.5625 15.1805 18.5625 13.7812C18.5625 13.6125 18.5449 13.4473 18.5133 13.2855C19.5328 12.8637 20.25 11.8582 20.25 10.6875Z" fill="white" fill-opacity="0.6"/>
</svg>
