<svg width="24" height="24" viewBox="0 0 24 24" fill="none" xmlns="http://www.w3.org/2000/svg">
<g clip-path="url(#clip0_131_1338)">
<path d="M21.75 4.5C21.9489 4.5 22.1397 4.57902 22.2803 4.71967C22.421 4.86032 22.5 5.05109 22.5 5.25V18.75C22.5 18.9489 22.421 19.1397 22.2803 19.2803C22.1397 19.421 21.9489 19.5 21.75 19.5H2.25C2.05109 19.5 1.86032 19.421 1.71967 19.2803C1.57902 19.1397 1.5 18.9489 1.5 18.75V5.25C1.5 5.05109 1.57902 4.86032 1.71967 4.71967C1.86032 4.57902 2.05109 4.5 2.25 4.5H21.75ZM2.25 3C1.65326 3 1.08097 3.23705 0.65901 3.65901C0.237053 4.08097 0 4.65326 0 5.25L0 18.75C0 19.3467 0.237053 19.919 0.65901 20.341C1.08097 20.7629 1.65326 21 2.25 21H21.75C22.3467 21 22.919 20.7629 23.341 20.341C23.7629 19.919 24 19.3467 24 18.75V5.25C24 4.65326 23.7629 4.08097 23.341 3.65901C22.919 3.23705 22.3467 3 21.75 3H2.25Z" fill="#1C74D5"/>
<path d="M10.5001 8.25C10.5001 8.05109 10.5791 7.86032 10.7197 7.71967C10.8604 7.57902 11.0512 7.5 11.2501 7.5H18.7501C18.949 7.5 19.1397 7.57902 19.2804 7.71967C19.4211 7.86032 19.5001 8.05109 19.5001 8.25C19.5001 8.44891 19.4211 8.63968 19.2804 8.78033C19.1397 8.92098 18.949 9 18.7501 9H11.2501C11.0512 9 10.8604 8.92098 10.7197 8.78033C10.5791 8.63968 10.5001 8.44891 10.5001 8.25ZM8.25607 6.969C8.32591 7.03867 8.38133 7.12143 8.41914 7.21255C8.45695 7.30366 8.47641 7.40135 8.47641 7.5C8.47641 7.59865 8.45695 7.69633 8.41914 7.78745C8.38133 7.87857 8.32591 7.96133 8.25607 8.031L6.00607 10.281C5.9364 10.3508 5.85364 10.4063 5.76252 10.4441C5.6714 10.4819 5.57372 10.5013 5.47507 10.5013C5.37642 10.5013 5.27874 10.4819 5.18762 10.4441C5.0965 10.4063 5.01374 10.3508 4.94407 10.281L4.19407 9.531C4.12434 9.46127 4.06902 9.37848 4.03128 9.28737C3.99354 9.19626 3.97412 9.09861 3.97412 9C3.97412 8.80083 4.05324 8.60983 4.19407 8.469C4.3349 8.32817 4.52591 8.24905 4.72507 8.24905C4.92423 8.24905 5.11524 8.32817 5.25607 8.469L5.47507 8.6895L7.19407 6.969C7.26374 6.89915 7.3465 6.84374 7.43762 6.80593C7.52874 6.76812 7.62642 6.74866 7.72507 6.74866C7.82372 6.74866 7.9214 6.76812 8.01252 6.80593C8.10364 6.84374 8.1864 6.89915 8.25607 6.969ZM10.5001 14.25C10.5001 14.0511 10.5791 13.8603 10.7197 13.7197C10.8604 13.579 11.0512 13.5 11.2501 13.5H18.7501C18.949 13.5 19.1397 13.579 19.2804 13.7197C19.4211 13.8603 19.5001 14.0511 19.5001 14.25C19.5001 14.4489 19.4211 14.6397 19.2804 14.7803C19.1397 14.921 18.949 15 18.7501 15H11.2501C11.0512 15 10.8604 14.921 10.7197 14.7803C10.5791 14.6397 10.5001 14.4489 10.5001 14.25ZM8.25607 12.969C8.32591 13.0387 8.38133 13.1214 8.41914 13.2125C8.45695 13.3037 8.47641 13.4013 8.47641 13.5C8.47641 13.5987 8.45695 13.6963 8.41914 13.7874C8.38133 13.8786 8.32591 13.9613 8.25607 14.031L6.00607 16.281C5.9364 16.3508 5.85364 16.4063 5.76252 16.4441C5.6714 16.4819 5.57372 16.5013 5.47507 16.5013C5.37642 16.5013 5.27874 16.4819 5.18762 16.4441C5.0965 16.4063 5.01374 16.3508 4.94407 16.281L4.19407 15.531C4.12434 15.4613 4.06902 15.3785 4.03128 15.2874C3.99354 15.1963 3.97412 15.0986 3.97412 15C3.97412 14.9014 3.99354 14.8037 4.03128 14.7126C4.06902 14.6215 4.12434 14.5387 4.19407 14.469C4.2638 14.3993 4.34658 14.344 4.43769 14.3062C4.5288 14.2685 4.62645 14.2491 4.72507 14.2491C4.82368 14.2491 4.92133 14.2685 5.01244 14.3062C5.10355 14.344 5.18634 14.3993 5.25607 14.469L5.47507 14.6895L7.19407 12.969C7.26374 12.8992 7.3465 12.8437 7.43762 12.8059C7.52874 12.7681 7.62642 12.7487 7.72507 12.7487C7.82372 12.7487 7.9214 12.7681 8.01252 12.8059C8.10364 12.8437 8.1864 12.8992 8.25607 12.969Z" fill="#1C74D5"/>
</g>
<defs>
<clipPath id="clip0_131_1338">
<rect width="24" height="24" fill="white"/>
</clipPath>
</defs>
</svg>
