<svg width="16" height="16" viewBox="0 0 16 16" fill="none" xmlns="http://www.w3.org/2000/svg">
<path d="M14 4.5V14C14 14.5304 13.7893 15.0391 13.4142 15.4142C13.0391 15.7893 12.5304 16 12 16H4C3.46957 16 2.96086 15.7893 2.58579 15.4142C2.21071 15.0391 2 14.5304 2 14V2C2 1.46957 2.21071 0.960859 2.58579 0.585786C2.96086 0.210714 3.46957 0 4 0L9.5 0L14 4.5ZM11 4.5C10.6022 4.5 10.2206 4.34196 9.93934 4.06066C9.65804 3.77936 9.5 3.39782 9.5 3V1H4C3.73478 1 3.48043 1.10536 3.29289 1.29289C3.10536 1.48043 3 1.73478 3 2V14C3 14.2652 3.10536 14.5196 3.29289 14.7071C3.48043 14.8946 3.73478 15 4 15H12C12.2652 15 12.5196 14.8946 12.7071 14.7071C12.8946 14.5196 13 14.2652 13 14V4.5H11Z" fill="#6C757D"/>
<path d="M8.64598 6.64601C8.69242 6.59945 8.7476 6.5625 8.80834 6.5373C8.86909 6.51209 8.93421 6.49911 8.99998 6.49911C9.06575 6.49911 9.13087 6.51209 9.19161 6.5373C9.25236 6.5625 9.30753 6.59945 9.35398 6.64601L11.354 8.64601C11.4005 8.69245 11.4375 8.74763 11.4627 8.80838C11.4879 8.86912 11.5009 8.93424 11.5009 9.00001C11.5009 9.06578 11.4879 9.1309 11.4627 9.19164C11.4375 9.25239 11.4005 9.30756 11.354 9.35401L9.35398 11.354C9.26009 11.4479 9.13275 11.5006 8.99998 11.5006C8.8672 11.5006 8.73986 11.4479 8.64598 11.354C8.55209 11.2601 8.49935 11.1328 8.49935 11C8.49935 10.8672 8.55209 10.7399 8.64598 10.646L10.293 9.00001L8.64598 7.35401C8.59941 7.30756 8.56247 7.25239 8.53727 7.19164C8.51206 7.1309 8.49908 7.06578 8.49908 7.00001C8.49908 6.93424 8.51206 6.86912 8.53727 6.80837C8.56247 6.74763 8.59941 6.69245 8.64598 6.64601ZM7.35398 6.64601C7.30753 6.59945 7.25236 6.5625 7.19161 6.5373C7.13087 6.51209 7.06575 6.49911 6.99998 6.49911C6.93421 6.49911 6.86909 6.51209 6.80834 6.5373C6.7476 6.5625 6.69242 6.59945 6.64598 6.64601L4.64598 8.64601C4.59941 8.69245 4.56247 8.74763 4.53727 8.80838C4.51206 8.86912 4.49908 8.93424 4.49908 9.00001C4.49908 9.06578 4.51206 9.1309 4.53727 9.19164C4.56247 9.25239 4.59941 9.30756 4.64598 9.35401L6.64598 11.354C6.73986 11.4479 6.8672 11.5006 6.99998 11.5006C7.13275 11.5006 7.26009 11.4479 7.35398 11.354C7.44786 11.2601 7.50061 11.1328 7.50061 11C7.50061 10.8672 7.44786 10.7399 7.35398 10.646L5.70698 9.00001L7.35398 7.35401C7.40054 7.30756 7.43748 7.25239 7.46269 7.19164C7.4879 7.1309 7.50087 7.06578 7.50087 7.00001C7.50087 6.93424 7.4879 6.86912 7.46269 6.80837C7.43748 6.74763 7.40054 6.69245 7.35398 6.64601Z" fill="#6C757D"/>
</svg>
