<svg width="32" height="32" viewBox="0 0 32 32" fill="none" xmlns="http://www.w3.org/2000/svg">
<rect width="32" height="32" rx="4" fill="#DBE9F8"/>
<path d="M4 6.25C4 5.65326 4.23705 5.08097 4.65901 4.65901C5.08097 4.23705 5.65326 4 6.25 4H25.75C26.3467 4 26.919 4.23705 27.341 4.65901C27.7629 5.08097 28 5.65326 28 6.25V25.75C28 26.3467 27.7629 26.919 27.341 27.341C26.919 27.7629 26.3467 28 25.75 28H6.25C5.65326 28 5.08097 27.7629 4.65901 27.341C4.23705 26.919 4 26.3467 4 25.75V6.25ZM6.25 5.5C6.05109 5.5 5.86032 5.57902 5.71967 5.71967C5.57902 5.86032 5.5 6.05109 5.5 6.25V25.75C5.5 25.9489 5.57902 26.1397 5.71967 26.2803C5.86032 26.421 6.05109 26.5 6.25 26.5H11.5V5.5H6.25ZM19 26.5V5.5H13V26.5H19ZM20.5 26.5H25.75C25.9489 26.5 26.1397 26.421 26.2803 26.2803C26.421 26.1397 26.5 25.9489 26.5 25.75V6.25C26.5 6.05109 26.421 5.86032 26.2803 5.71967C26.1397 5.57902 25.9489 5.5 25.75 5.5H20.5V26.5Z" fill="#1C74D5"/>
</svg>
