<svg width="24" height="24" viewBox="0 0 24 24" fill="none" xmlns="http://www.w3.org/2000/svg">
<rect width="24" height="24" rx="12" fill="#DC3545" fill-opacity="0.16"/>
<path d="M9.5 9.5C9.63261 9.5 9.75979 9.55268 9.85355 9.64645C9.94732 9.74021 10 9.86739 10 10V16C10 16.1326 9.94732 16.2598 9.85355 16.3536C9.75979 16.4473 9.63261 16.5 9.5 16.5C9.36739 16.5 9.24021 16.4473 9.14645 16.3536C9.05268 16.2598 9 16.1326 9 16V10C9 9.86739 9.05268 9.74021 9.14645 9.64645C9.24021 9.55268 9.36739 9.5 9.5 9.5ZM12 9.5C12.1326 9.5 12.2598 9.55268 12.3536 9.64645C12.4473 9.74021 12.5 9.86739 12.5 10V16C12.5 16.1326 12.4473 16.2598 12.3536 16.3536C12.2598 16.4473 12.1326 16.5 12 16.5C11.8674 16.5 11.7402 16.4473 11.6464 16.3536C11.5527 16.2598 11.5 16.1326 11.5 16V10C11.5 9.86739 11.5527 9.74021 11.6464 9.64645C11.7402 9.55268 11.8674 9.5 12 9.5ZM15 10C15 9.86739 14.9473 9.74021 14.8536 9.64645C14.7598 9.55268 14.6326 9.5 14.5 9.5C14.3674 9.5 14.2402 9.55268 14.1464 9.64645C14.0527 9.74021 14 9.86739 14 10V16C14 16.1326 14.0527 16.2598 14.1464 16.3536C14.2402 16.4473 14.3674 16.5 14.5 16.5C14.6326 16.5 14.7598 16.4473 14.8536 16.3536C14.9473 16.2598 15 16.1326 15 16V10Z" fill="#DC3545"/>
<path fill-rule="evenodd" clip-rule="evenodd" d="M18.5 7C18.5 7.26522 18.3946 7.51957 18.2071 7.70711C18.0196 7.89464 17.7652 8 17.5 8H17V17C17 17.5304 16.7893 18.0391 16.4142 18.4142C16.0391 18.7893 15.5304 19 15 19H9C8.46957 19 7.96086 18.7893 7.58579 18.4142C7.21071 18.0391 7 17.5304 7 17V8H6.5C6.23478 8 5.98043 7.89464 5.79289 7.70711C5.60536 7.51957 5.5 7.26522 5.5 7V6C5.5 5.73478 5.60536 5.48043 5.79289 5.29289C5.98043 5.10536 6.23478 5 6.5 5H10C10 4.73478 10.1054 4.48043 10.2929 4.29289C10.4804 4.10536 10.7348 4 11 4H13C13.2652 4 13.5196 4.10536 13.7071 4.29289C13.8946 4.48043 14 4.73478 14 5H17.5C17.7652 5 18.0196 5.10536 18.2071 5.29289C18.3946 5.48043 18.5 5.73478 18.5 6V7ZM8.118 8L8 8.059V17C8 17.2652 8.10536 17.5196 8.29289 17.7071C8.48043 17.8946 8.73478 18 9 18H15C15.2652 18 15.5196 17.8946 15.7071 17.7071C15.8946 17.5196 16 17.2652 16 17V8.059L15.882 8H8.118ZM6.5 7V6H17.5V7H6.5Z" fill="#DC3545"/>
</svg>
