<svg width="32" height="32" viewBox="0 0 32 32" fill="none" xmlns="http://www.w3.org/2000/svg">
<rect width="32" height="32" rx="4" fill="#DBE9F8"/>
<path d="M16.75 13.75C16.75 13.5511 16.671 13.3603 16.5303 13.2197C16.3896 13.079 16.1989 13 16 13C15.8011 13 15.6103 13.079 15.4696 13.2197C15.329 13.3603 15.25 13.5511 15.25 13.75V19.4395L13.531 17.719C13.4612 17.6493 13.3785 17.594 13.2873 17.5562C13.1962 17.5185 13.0986 17.4991 13 17.4991C12.9014 17.4991 12.8037 17.5185 12.7126 17.5562C12.6215 17.594 12.5387 17.6493 12.469 17.719C12.3992 17.7887 12.3439 17.8715 12.3062 17.9626C12.2684 18.0537 12.249 18.1514 12.249 18.25C12.249 18.3486 12.2684 18.4463 12.3062 18.5374C12.3439 18.6285 12.3992 18.7113 12.469 18.781L15.469 21.781C15.5386 21.8508 15.6214 21.9063 15.7125 21.9441C15.8036 21.9819 15.9013 22.0013 16 22.0013C16.0986 22.0013 16.1963 21.9819 16.2874 21.9441C16.3785 21.9063 16.4613 21.8508 16.531 21.781L19.531 18.781C19.6007 18.7113 19.656 18.6285 19.6938 18.5374C19.7315 18.4463 19.7509 18.3486 19.7509 18.25C19.7509 18.1514 19.7315 18.0537 19.6938 17.9626C19.656 17.8715 19.6007 17.7887 19.531 17.719C19.4612 17.6493 19.3785 17.594 19.2873 17.5562C19.1962 17.5185 19.0986 17.4991 19 17.4991C18.9014 17.4991 18.8037 17.5185 18.7126 17.5562C18.6215 17.594 18.5387 17.6493 18.469 17.719L16.75 19.4395V13.75Z" fill="#1C74D5"/>
<path d="M25 25V10.75L18.25 4H10C9.20435 4 8.44129 4.31607 7.87868 4.87868C7.31607 5.44129 7 6.20435 7 7V25C7 25.7956 7.31607 26.5587 7.87868 27.1213C8.44129 27.6839 9.20435 28 10 28H22C22.7956 28 23.5587 27.6839 24.1213 27.1213C24.6839 26.5587 25 25.7956 25 25ZM18.25 8.5C18.25 9.09674 18.4871 9.66903 18.909 10.091C19.331 10.5129 19.9033 10.75 20.5 10.75H23.5V25C23.5 25.3978 23.342 25.7794 23.0607 26.0607C22.7794 26.342 22.3978 26.5 22 26.5H10C9.60218 26.5 9.22064 26.342 8.93934 26.0607C8.65804 25.7794 8.5 25.3978 8.5 25V7C8.5 6.60218 8.65804 6.22064 8.93934 5.93934C9.22064 5.65804 9.60218 5.5 10 5.5H18.25V8.5Z" fill="#1C74D5"/>
</svg>
