<svg width="8" height="15" viewBox="0 0 8 15" fill="none" xmlns="http://www.w3.org/2000/svg">
<path fill-rule="evenodd" clip-rule="evenodd" d="M7.99983 5.6C7.99983 5.6636 7.98463 5.7272 7.95423 5.7856C7.88503 5.9176 7.74863 6 7.59983 6H0.399833C0.251033 6 0.114633 5.9176 0.0454328 5.7856C-0.0233672 5.654 -0.0133672 5.4944 0.0710328 5.3724L3.67103 0.1724C3.74583 0.0643995 3.86863 0 3.99983 0C4.13103 0 4.25383 0.0643995 4.32863 0.1724L7.92863 5.3724C7.97583 5.4408 7.99983 5.52 7.99983 5.6ZM0 9.25742C0 9.19382 0.0151998 9.13022 0.0455998 9.07182C0.1148 8.93982 0.2512 8.85742 0.4 8.85742H7.6C7.7488 8.85742 7.8852 8.93982 7.9544 9.07182C8.0232 9.20342 8.0132 9.36302 7.9288 9.48502L4.3288 14.685C4.254 14.793 4.1312 14.8574 4 14.8574C3.8688 14.8574 3.746 14.793 3.6712 14.685L0.0711997 9.48502C0.0239997 9.41662 0 9.33742 0 9.25742Z" fill="#6C757D"/>
</svg>
