<svg width="16" height="16" viewBox="0 0 16 16" fill="none" xmlns="http://www.w3.org/2000/svg">
<g clip-path="url(#clip0_504_1412)">
<path d="M6.94989 0.435C7.52989 -0.145 8.46989 -0.145 9.04989 0.435L15.5649 6.951C16.1449 7.531 16.1449 8.47 15.5649 9.049L9.04989 15.565C8.46989 16.145 7.53089 16.145 6.95189 15.565L0.434892 9.05C0.296956 8.91234 0.187522 8.74884 0.112856 8.56883C0.0381891 8.38883 -0.000244141 8.19587 -0.000244141 8.001C-0.000244141 7.80613 0.0381891 7.61317 0.112856 7.43317C0.187522 7.25316 0.296956 7.08966 0.434892 6.952L6.94989 0.435ZM8.34989 1.135C8.25706 1.04218 8.13117 0.990036 7.99989 0.990036C7.86862 0.990036 7.74272 1.04218 7.64989 1.135L1.13389 7.65C1.04107 7.74283 0.988928 7.86873 0.988928 8C0.988928 8.13127 1.04107 8.25717 1.13389 8.35L7.64989 14.866C7.74272 14.9588 7.86862 15.011 7.99989 15.011C8.13117 15.011 8.25706 14.9588 8.34989 14.866L14.8659 8.35C14.9587 8.25717 15.0109 8.13127 15.0109 8C15.0109 7.86873 14.9587 7.74283 14.8659 7.65L8.34989 1.134V1.135Z" fill="#1C74D5"/>
<path d="M7.00195 11C7.00195 10.8687 7.02782 10.7386 7.07807 10.6173C7.12833 10.496 7.20199 10.3857 7.29485 10.2929C7.38771 10.2 7.49794 10.1264 7.61927 10.0761C7.7406 10.0259 7.87063 10 8.00195 10C8.13327 10 8.26331 10.0259 8.38464 10.0761C8.50596 10.1264 8.6162 10.2 8.70906 10.2929C8.80192 10.3857 8.87558 10.496 8.92583 10.6173C8.97609 10.7386 9.00195 10.8687 9.00195 11C9.00195 11.2652 8.8966 11.5196 8.70906 11.7071C8.52152 11.8946 8.26717 12 8.00195 12C7.73674 12 7.48238 11.8946 7.29485 11.7071C7.10731 11.5196 7.00195 11.2652 7.00195 11ZM7.09995 4.995C7.08664 4.86884 7.09999 4.74129 7.13915 4.62062C7.17831 4.49996 7.24241 4.38888 7.32727 4.29458C7.41214 4.20029 7.51588 4.12489 7.63176 4.07328C7.74765 4.02167 7.87309 3.995 7.99995 3.995C8.12681 3.995 8.25226 4.02167 8.36814 4.07328C8.48403 4.12489 8.58777 4.20029 8.67263 4.29458C8.7575 4.38888 8.82159 4.49996 8.86075 4.62062C8.89991 4.74129 8.91327 4.86884 8.89995 4.995L8.54995 8.502C8.53819 8.63977 8.47516 8.76811 8.37331 8.86163C8.27146 8.95515 8.13823 9.00705 7.99995 9.00705C7.86168 9.00705 7.72844 8.95515 7.6266 8.86163C7.52475 8.76811 7.46171 8.63977 7.44995 8.502L7.09995 4.995Z" fill="#1C74D5"/>
</g>
<defs>
<clipPath id="clip0_504_1412">
<rect width="16" height="16" fill="white"/>
</clipPath>
</defs>
</svg>
