<svg width="24" height="24" viewBox="0 0 24 24" fill="none" xmlns="http://www.w3.org/2000/svg">
<path d="M8.22731 10.3187C8.20537 10.2212 8.16415 10.1291 8.10609 10.0477C8.04803 9.96637 7.97429 9.89744 7.88921 9.84498C7.80412 9.79252 7.70942 9.75761 7.61065 9.74227C7.51188 9.72694 7.41104 9.73151 7.31406 9.7557C7.21708 9.7799 7.12591 9.82323 7.04592 9.88316C6.96592 9.94309 6.89872 10.0184 6.84825 10.1047C6.79777 10.191 6.76506 10.2864 6.75202 10.3855C6.73898 10.4846 6.74587 10.5854 6.77231 10.6817L9.02231 19.6817C9.06282 19.8424 9.15539 19.9851 9.28554 20.0876C9.4157 20.19 9.57612 20.2466 9.74178 20.2483C9.90743 20.25 10.069 20.1968 10.2012 20.097C10.3335 19.9973 10.429 19.8565 10.4728 19.6967L11.9998 14.1032L13.5268 19.6982C13.5706 19.858 13.6661 19.9988 13.7984 20.0985C13.9306 20.1983 14.0922 20.2515 14.2578 20.2498C14.4235 20.2481 14.5839 20.1915 14.7141 20.0891C14.8442 19.9866 14.9368 19.8439 14.9773 19.6832L17.2273 10.6832C17.2703 10.4921 17.2368 10.2918 17.134 10.125C17.0312 9.95823 16.8672 9.83832 16.6772 9.7909C16.4871 9.74348 16.286 9.77231 16.1169 9.87123C15.9478 9.97016 15.8241 10.1313 15.7723 10.3202L14.2183 16.5362L12.7228 11.0537C12.6792 10.8955 12.5848 10.7559 12.4542 10.6565C12.3236 10.557 12.164 10.5032 11.9998 10.5032C11.8357 10.5032 11.676 10.557 11.5454 10.6565C11.4148 10.7559 11.3205 10.8955 11.2768 11.0537L9.78131 16.5362L8.22731 10.3202V10.3187Z" fill="#1C74D5"/>
<path d="M21 21V6.75L14.25 0H6C5.20435 0 4.44129 0.316071 3.87868 0.87868C3.31607 1.44129 3 2.20435 3 3V21C3 21.7956 3.31607 22.5587 3.87868 23.1213C4.44129 23.6839 5.20435 24 6 24H18C18.7956 24 19.5587 23.6839 20.1213 23.1213C20.6839 22.5587 21 21.7956 21 21ZM14.25 4.5C14.25 5.09674 14.4871 5.66903 14.909 6.09099C15.331 6.51295 15.9033 6.75 16.5 6.75H19.5V21C19.5 21.3978 19.342 21.7794 19.0607 22.0607C18.7794 22.342 18.3978 22.5 18 22.5H6C5.60218 22.5 5.22064 22.342 4.93934 22.0607C4.65804 21.7794 4.5 21.3978 4.5 21V3C4.5 2.60218 4.65804 2.22064 4.93934 1.93934C5.22064 1.65804 5.60218 1.5 6 1.5H14.25V4.5Z" fill="#1C74D5"/>
</svg>
