<svg width="24" height="24" viewBox="0 0 24 24" fill="none" xmlns="http://www.w3.org/2000/svg">
<path d="M22.4074 8.9124L15.5732 2.09447C15.4473 1.96851 15.24 1.96851 15.1141 2.09447L13.7326 3.47187C13.6067 3.59783 13.6067 3.80505 13.7326 3.931L14.1877 4.38201L4.33865 14.2107C2.76216 15.7832 2.50618 18.3551 3.95672 20.0413C4.79372 21.0165 5.96797 21.504 7.14222 21.5C8.21488 21.5 9.28755 21.0937 10.1042 20.277L20.1117 10.2939L20.5668 10.7449C20.6928 10.8708 20.9 10.8708 21.0259 10.7449L22.4074 9.36747C22.5334 9.24558 22.5334 9.03836 22.4074 8.9124ZM15.9186 11.7525H9.53946L15.5529 5.75128L18.7425 8.93271L15.9186 11.7525Z" fill="white" fill-opacity="0.6"/>
</svg>
