<svg width="40" height="40" viewBox="0 0 40 40" fill="none" xmlns="http://www.w3.org/2000/svg">
<path d="M32.4136 11.9971L29.4158 9.06172C28.7913 8.43718 27.9169 8 26.9801 8H12.8031C11.8663 8 10.9919 8.37472 10.3049 9.06172L7.36957 11.9971H0V27.9853H3.99706C5.05878 27.9853 5.93313 27.1109 5.93313 25.9868H6.55767L11.8038 30.7957C13.7399 32.3571 16.4254 32.3571 18.4239 31.0455C19.1734 31.6701 20.0477 31.9823 20.9846 31.9823C22.1087 31.9823 23.1704 31.5452 24.0448 30.4834C25.4188 31.0455 27.0426 30.6708 28.0419 29.4842L29.6657 27.4232C29.9779 26.986 30.2277 26.5488 30.3527 25.9868H33.975C33.975 27.1109 34.8493 27.9853 35.9735 27.9853H39.9706V11.9971H32.4136ZM2.99779 25.9868C2.43571 25.9868 1.99853 25.5496 1.99853 24.9875C1.99853 24.4254 2.43571 23.9882 2.99779 23.9882C3.49743 23.9882 3.99706 24.4254 3.99706 24.9875C3.99706 25.5496 3.49743 25.9868 2.99779 25.9868ZM27.3549 25.5496L25.6686 27.5481C25.5437 27.7979 25.2314 27.7979 24.9816 27.673L23.4827 26.4239L21.6091 28.7347C21.2344 29.1719 20.6723 28.9846 20.4849 28.8596L18.1741 26.9236L17.2373 28.1102C16.363 29.1719 14.8016 29.2968 13.8023 28.4849L7.68184 22.989H5.99559V14.9949H8.5562L12.4283 11.1852C12.5533 11.1227 12.6782 11.0602 12.8031 10.9978H16.363L13.9272 13.2461C12.0536 14.9324 11.9912 17.7428 13.615 19.554C14.5518 20.5533 17.4871 22.1146 19.9853 19.8663L20.4849 19.3666L27.23 24.8626C27.4798 25.0499 27.4798 25.3622 27.3549 25.5496ZM33.975 22.989H29.6032C29.4783 22.8641 29.2909 22.6767 29.166 22.5518L22.7333 17.3057L23.4827 16.6187C23.9199 16.2439 23.9199 15.6194 23.5452 15.1822L22.9206 14.4952C22.5459 14.058 21.8589 14.058 21.4842 14.4328L18.0492 17.5555C17.4247 18.1176 16.4254 18.18 15.8633 17.5555C15.3012 16.9309 15.3637 15.9941 15.9258 15.432L20.0477 11.6848C20.4849 11.2476 21.1095 11.0602 21.734 11.0602L26.9801 10.9978C27.105 10.9978 27.23 11.0602 27.2924 11.1852L31.1646 14.9949H33.975V22.989ZM36.9728 25.9868C36.4107 25.9868 35.9735 25.5496 35.9735 24.9875C35.9735 24.4254 36.4107 23.9882 36.9728 23.9882C37.4724 23.9882 37.972 24.4254 37.972 24.9875C37.972 25.5496 37.4724 25.9868 36.9728 25.9868Z" fill="#1C74D5"/>
</svg>
