<svg width="21" height="18" viewBox="0 0 21 18" fill="none" xmlns="http://www.w3.org/2000/svg">
<path d="M5.62514 6.18726H7.87505V8.43717C7.87505 8.58635 7.93431 8.72942 8.03979 8.8349C8.14528 8.94039 8.28835 8.99965 8.43753 8.99965H10.6874C10.8366 8.99965 10.9797 8.94039 11.0852 8.8349C11.1907 8.72942 11.2499 8.58635 11.2499 8.43717V6.18726H13.4998C13.649 6.18726 13.7921 6.128 13.8976 6.02251C14.003 5.91703 14.0623 5.77396 14.0623 5.62478V3.37487C14.0623 3.22569 14.003 3.08262 13.8976 2.97714C13.7921 2.87165 13.649 2.81239 13.4998 2.81239H11.2499V0.562478C11.2499 0.4133 11.1907 0.270231 11.0852 0.164746C10.9797 0.0592609 10.8366 0 10.6874 0H8.43753C8.28835 0 8.14528 0.0592609 8.03979 0.164746C7.93431 0.270231 7.87505 0.4133 7.87505 0.562478V2.81239H5.62514C5.47596 2.81239 5.33289 2.87165 5.2274 2.97714C5.12192 3.08262 5.06266 3.22569 5.06266 3.37487V5.62478C5.06266 5.77396 5.12192 5.91703 5.2274 6.02251C5.33289 6.128 5.47596 6.18726 5.62514 6.18726ZM19.975 11.8229C19.8657 11.6739 19.7281 11.548 19.57 11.4523C19.4119 11.3567 19.2365 11.2932 19.0538 11.2655C18.8711 11.2379 18.6847 11.2466 18.5054 11.2911C18.3261 11.3357 18.1573 11.4152 18.0088 11.5252L13.8018 14.6251H9.56178C9.4126 14.6251 9.26953 14.5659 9.16405 14.4604C9.05856 14.3549 8.9993 14.2118 8.9993 14.0627C8.9993 13.9135 9.05856 13.7704 9.16405 13.6649C9.26953 13.5594 9.4126 13.5002 9.56178 13.5002H12.3123C12.8748 13.5002 13.3933 13.118 13.4854 12.5647C13.5126 12.4031 13.5042 12.2376 13.4609 12.0796C13.4176 11.9215 13.3403 11.7749 13.2345 11.6498C13.1287 11.5247 12.9968 11.4242 12.8482 11.3552C12.6996 11.2863 12.5377 11.2506 12.3738 11.2506H6.74904C5.80037 11.2504 4.88045 11.5762 4.14336 12.1734L2.50865 13.5002H0.562478C0.413613 13.5012 0.271132 13.5608 0.165866 13.666C0.0605993 13.7713 0.00101304 13.9138 0 14.0627V17.4375C0.00101304 17.5864 0.0605993 17.7289 0.165866 17.8341C0.271132 17.9394 0.413613 17.999 0.562478 18H12.7612C13.5415 17.9981 14.301 17.7486 14.9303 17.2874L19.6773 13.787C19.9769 13.5658 20.1765 13.2348 20.2323 12.8666C20.2881 12.4983 20.1956 12.123 19.975 11.8229V11.8229Z" fill="white"/>
</svg>
