<svg width="13" height="16" viewBox="0 0 13 16" fill="none" xmlns="http://www.w3.org/2000/svg">
<path d="M4.956 1.74504C5.021 0.81004 5.908 0.0870403 6.864 0.32504L7.125 0.39104C7.588 0.50704 7.999 0.84704 8.137 1.35604C8.357 2.17204 8.67 3.86704 8.199 5.86604C8.34626 5.8457 8.49397 5.82869 8.642 5.81504C9.355 5.75004 10.311 5.74304 11.158 6.02504C11.676 6.19804 12.152 6.70604 12.358 7.29804C12.542 7.83004 12.518 8.46004 12.124 9.03104C12.182 9.15004 12.227 9.27304 12.262 9.39404C12.339 9.66404 12.375 9.96104 12.375 10.25C12.375 10.539 12.339 10.836 12.262 11.106C12.223 11.241 12.172 11.379 12.102 11.51C12.271 11.897 12.209 12.329 12.099 12.658C11.9864 12.9829 11.8216 13.2872 11.611 13.559C11.665 13.711 11.687 13.871 11.687 14.024C11.687 14.329 11.598 14.649 11.434 14.936C11.1 15.522 10.437 16 9.5 16H6C5.395 16 4.93 15.919 4.534 15.782C4.1935 15.6577 3.86811 15.4953 3.564 15.298L3.516 15.268C3.012 14.961 2.517 14.659 1.448 14.546C0.682 14.464 0 13.846 0 13V9.00004C0 8.15004 0.685 7.56804 1.357 7.38504C2.206 7.15304 2.931 6.59804 3.489 5.97504C4.049 5.34804 4.403 4.69504 4.528 4.33604C4.727 3.76104 4.884 2.79704 4.956 1.74604V1.74504Z" fill="#4DECE2"/>
</svg>
