<svg width="24" height="24" viewBox="0 0 24 24" fill="none" xmlns="http://www.w3.org/2000/svg">
<rect width="24" height="24" rx="12" fill="#1C74D5" fill-opacity="0.16"/>
<g clip-path="url(#clip0_1851_2484)">
<path d="M12.098 9.01247C12.1201 9.00275 12.1443 8.99873 12.1684 9.00079C12.1924 9.00285 12.2155 9.01093 12.2357 9.02427C12.2558 9.03761 12.2722 9.05579 12.2835 9.07715C12.2947 9.0985 12.3004 9.12234 12.3 9.14647V10.2995C12.3 10.4321 12.3527 10.5593 12.4465 10.653C12.5402 10.7468 12.6674 10.7995 12.8 10.7995C13.467 10.7995 14.813 10.8045 16.1 11.6215C17.084 12.2455 18.09 13.3815 18.695 15.4975C17.675 14.5145 16.51 13.9815 15.49 13.6985C14.8631 13.5253 14.2188 13.4227 13.569 13.3925C13.3031 13.3808 13.0367 13.3835 12.771 13.4005H12.758L12.753 13.4015H12.752L12.8 13.8995L12.75 13.4015C12.6266 13.4139 12.5122 13.4717 12.4291 13.5637C12.3459 13.6558 12.2999 13.7754 12.3 13.8995V15.0525C12.3 15.1605 12.19 15.2285 12.098 15.1865L8.11403 12.2535C8.10051 12.2434 8.0865 12.2341 8.07203 12.2255C8.05029 12.2124 8.0323 12.1939 8.01981 12.1719C8.00732 12.1498 8.00075 12.1248 8.00075 12.0995C8.00075 12.0741 8.00732 12.0492 8.01981 12.0271C8.0323 12.005 8.05029 11.9865 8.07203 11.9735C8.0865 11.9649 8.10052 11.9555 8.11403 11.9455L12.098 9.01247ZM13.3 14.3855C13.368 14.3855 13.443 14.3885 13.523 14.3915C13.957 14.4115 14.557 14.4775 15.223 14.6625C16.549 15.0305 18.119 15.8645 19.163 17.7425C19.2195 17.8438 19.3094 17.9224 19.4175 17.9647C19.5255 18.0071 19.6449 18.0105 19.7552 17.9744C19.8655 17.9384 19.9598 17.8651 20.022 17.7671C20.0842 17.6692 20.1104 17.5526 20.096 17.4375C19.632 13.7275 18.21 11.7755 16.636 10.7775C15.391 9.98747 14.109 9.83547 13.3 9.80647V9.14647C13.3001 8.94054 13.2446 8.7384 13.1394 8.56138C13.0342 8.38437 12.8831 8.23904 12.7022 8.14073C12.5212 8.04242 12.3171 7.99478 12.1113 8.00283C11.9055 8.01088 11.7057 8.07432 11.533 8.18647L7.53903 11.1265C7.37391 11.2295 7.23774 11.3729 7.14333 11.5432C7.04893 11.7134 6.99939 11.9048 6.99939 12.0995C6.99939 12.2941 7.04893 12.4856 7.14333 12.6558C7.23774 12.826 7.37391 12.9694 7.53903 13.0725L11.533 16.0125C11.7057 16.1246 11.9055 16.1881 12.1113 16.1961C12.3171 16.2042 12.5212 16.1565 12.7022 16.0582C12.8831 15.9599 13.0342 15.8146 13.1394 15.6376C13.2446 15.4605 13.3001 15.2584 13.3 15.0525V14.3855Z" fill="#1C74D5"/>
<path d="M9.23201 8.29371C9.19306 8.24072 9.14404 8.19593 9.08776 8.16192C9.03147 8.1279 8.96903 8.10533 8.904 8.09548C8.83898 8.08563 8.77265 8.08871 8.70882 8.10454C8.64499 8.12036 8.58491 8.14863 8.53201 8.18771L4.54001 11.1277C4.37489 11.2308 4.23872 11.3742 4.14431 11.5444C4.0499 11.7146 4.00037 11.9061 4.00037 12.1007C4.00037 12.2954 4.0499 12.4868 4.14431 12.657C4.23872 12.8272 4.37489 12.9706 4.54001 13.0737L8.53401 16.0137C8.58677 16.0541 8.64704 16.0835 8.7113 16.1003C8.77556 16.1171 8.84252 16.1209 8.90828 16.1116C8.97404 16.1022 9.03727 16.0798 9.09428 16.0457C9.1513 16.0117 9.20095 15.9666 9.24035 15.9131C9.27974 15.8596 9.30808 15.7988 9.32372 15.7343C9.33936 15.6697 9.34198 15.6027 9.33143 15.5371C9.32088 15.4716 9.29737 15.4087 9.26227 15.3523C9.22717 15.296 9.18119 15.2471 9.12701 15.2087L5.11401 12.2547C5.10049 12.2447 5.08647 12.2353 5.07201 12.2267C5.05027 12.2136 5.03228 12.1952 5.01978 12.1731C5.00729 12.151 5.00073 12.1261 5.00073 12.1007C5.00073 12.0753 5.00729 12.0504 5.01978 12.0283C5.03228 12.0062 5.05027 11.9878 5.07201 11.9747C5.08647 11.9661 5.10049 11.9567 5.11401 11.9467L9.12601 8.99271C9.23274 8.91406 9.30387 8.79624 9.32375 8.66516C9.34363 8.53407 9.31063 8.40046 9.23201 8.29371Z" fill="#1C74D5"/>
</g>
<defs>
<clipPath id="clip0_1851_2484">
<rect width="16" height="16" fill="white" transform="translate(4 4)"/>
</clipPath>
</defs>
</svg>
