<svg width="24" height="24" viewBox="0 0 24 24" fill="none" xmlns="http://www.w3.org/2000/svg">
<rect width="24" height="24" rx="12" fill="#1C74D5" fill-opacity="0.16"/>
<path d="M10.598 9.01247C10.6201 9.00275 10.6443 8.99873 10.6683 9.00079C10.6924 9.00285 10.7155 9.01093 10.7357 9.02427C10.7558 9.03761 10.7722 9.05579 10.7835 9.07715C10.7947 9.0985 10.8004 9.12234 10.8 9.14647V10.2995C10.8 10.4321 10.8527 10.5593 10.9465 10.653C11.0402 10.7468 11.1674 10.7995 11.3 10.7995C11.967 10.7995 13.313 10.8045 14.6 11.6215C15.584 12.2455 16.59 13.3815 17.195 15.4975C16.175 14.5145 15.01 13.9815 13.99 13.6985C13.3631 13.5253 12.7188 13.4227 12.069 13.3925C11.8031 13.3808 11.5367 13.3835 11.271 13.4005H11.258L11.253 13.4015H11.252L11.3 13.8995L11.25 13.4015C11.1266 13.4139 11.0122 13.4717 10.9291 13.5637C10.8459 13.6558 10.7999 13.7754 10.8 13.8995V15.0525C10.8 15.1605 10.69 15.2285 10.598 15.1865L6.61403 12.2535C6.60051 12.2434 6.58649 12.2341 6.57203 12.2255C6.55029 12.2124 6.5323 12.1939 6.51981 12.1719C6.50732 12.1498 6.50075 12.1248 6.50075 12.0995C6.50075 12.0741 6.50732 12.0492 6.51981 12.0271C6.5323 12.005 6.55029 11.9865 6.57203 11.9735C6.5865 11.9649 6.60052 11.9555 6.61403 11.9455L10.598 9.01247ZM11.8 14.3855C11.868 14.3855 11.943 14.3885 12.023 14.3915C12.457 14.4115 13.057 14.4775 13.723 14.6625C15.049 15.0305 16.619 15.8645 17.663 17.7425C17.7195 17.8438 17.8094 17.9224 17.9175 17.9647C18.0255 18.0071 18.1449 18.0105 18.2552 17.9744C18.3655 17.9384 18.4598 17.8651 18.522 17.7671C18.5842 17.6692 18.6104 17.5526 18.596 17.4375C18.132 13.7275 16.71 11.7755 15.136 10.7775C13.891 9.98747 12.609 9.83547 11.8 9.80647V9.14647C11.8001 8.94054 11.7446 8.7384 11.6394 8.56138C11.5342 8.38437 11.3831 8.23904 11.2022 8.14073C11.0212 8.04242 10.8171 7.99478 10.6113 8.00283C10.4055 8.01088 10.2057 8.07432 10.033 8.18647L6.03903 11.1265C5.87391 11.2295 5.73774 11.3729 5.64333 11.5432C5.54893 11.7134 5.49939 11.9048 5.49939 12.0995C5.49939 12.2941 5.54893 12.4856 5.64333 12.6558C5.73774 12.826 5.87391 12.9694 6.03903 13.0725L10.033 16.0125C10.2057 16.1246 10.4055 16.1881 10.6113 16.1961C10.8171 16.2042 11.0212 16.1565 11.2022 16.0582C11.3831 15.9599 11.5342 15.8146 11.6394 15.6376C11.7446 15.4605 11.8001 15.2584 11.8 15.0525V14.3855Z" fill="#1C74D5"/>
</svg>
