<svg width="24" height="24" viewBox="0 0 24 24" fill="none" xmlns="http://www.w3.org/2000/svg">
<rect width="24" height="24" rx="12" transform="matrix(-1 0 0 1 24 0)" fill="#1C74D5" fill-opacity="0.16"/>
<path d="M13.402 9.01247C13.3799 9.00275 13.3557 8.99873 13.3317 9.00079C13.3076 9.00285 13.2845 9.01093 13.2643 9.02427C13.2442 9.03761 13.2278 9.05579 13.2165 9.07715C13.2053 9.0985 13.1996 9.12234 13.2 9.14647V10.2995C13.2 10.4321 13.1473 10.5593 13.0535 10.653C12.9598 10.7468 12.8326 10.7995 12.7 10.7995C12.033 10.7995 10.687 10.8045 9.39997 11.6215C8.41597 12.2455 7.40997 13.3815 6.80497 15.4975C7.82497 14.5145 8.98997 13.9815 10.01 13.6985C10.6369 13.5253 11.2812 13.4227 11.931 13.3925C12.1969 13.3808 12.4633 13.3835 12.729 13.4005H12.742L12.747 13.4015H12.748L12.7 13.8995L12.75 13.4015C12.8734 13.4139 12.9878 13.4717 13.0709 13.5637C13.1541 13.6558 13.2001 13.7754 13.2 13.8995V15.0525C13.2 15.1605 13.31 15.2285 13.402 15.1865L17.386 12.2535C17.3995 12.2434 17.4135 12.2341 17.428 12.2255C17.4497 12.2124 17.4677 12.1939 17.4802 12.1719C17.4927 12.1498 17.4992 12.1248 17.4992 12.0995C17.4992 12.0741 17.4927 12.0492 17.4802 12.0271C17.4677 12.005 17.4497 11.9865 17.428 11.9735C17.4135 11.9649 17.3995 11.9555 17.386 11.9455L13.402 9.01247ZM12.2 14.3855C12.132 14.3855 12.057 14.3885 11.977 14.3915C11.543 14.4115 10.943 14.4775 10.277 14.6625C8.95097 15.0305 7.38097 15.8645 6.33697 17.7425C6.28051 17.8438 6.19055 17.9224 6.08251 17.9647C5.97447 18.0071 5.85507 18.0105 5.74478 17.9744C5.63449 17.9384 5.54018 17.8651 5.478 17.7671C5.41582 17.6692 5.38965 17.5526 5.40397 17.4375C5.86797 13.7275 7.28997 11.7755 8.86397 10.7775C10.109 9.98747 11.391 9.83547 12.2 9.80647V9.14647C12.1999 8.94054 12.2554 8.7384 12.3606 8.56138C12.4658 8.38437 12.6169 8.23904 12.7978 8.14073C12.9788 8.04242 13.1829 7.99478 13.3887 8.00283C13.5945 8.01088 13.7943 8.07432 13.967 8.18647L17.961 11.1265C18.1261 11.2295 18.2623 11.3729 18.3567 11.5432C18.4511 11.7134 18.5006 11.9048 18.5006 12.0995C18.5006 12.2941 18.4511 12.4856 18.3567 12.6558C18.2623 12.826 18.1261 12.9694 17.961 13.0725L13.967 16.0125C13.7943 16.1246 13.5945 16.1881 13.3887 16.1961C13.1829 16.2042 12.9788 16.1565 12.7978 16.0582C12.6169 15.9599 12.4658 15.8146 12.3606 15.6376C12.2554 15.4605 12.1999 15.2584 12.2 15.0525V14.3855Z" fill="#1C74D5"/>
</svg>
