<svg width="24" height="24" viewBox="0 0 24 24" fill="none" xmlns="http://www.w3.org/2000/svg">
<g clip-path="url(#clip0_709_1842)">
<path d="M9 0.41696C9.14642 0.594878 9.23612 0.812618 9.25751 1.04204C9.27891 1.27147 9.231 1.50204 9.12 1.70396C8.25279 3.29617 7.7999 5.0809 7.803 6.89396C7.803 12.9255 12.72 17.8095 18.78 17.8095C19.5705 17.8095 20.34 17.727 21.0795 17.5695C21.3062 17.5204 21.5423 17.5391 21.7584 17.6234C21.9745 17.7077 22.1609 17.8538 22.2945 18.0435C22.4355 18.2406 22.5074 18.4789 22.499 18.7211C22.4905 18.9634 22.4023 19.196 22.248 19.383C21.0715 20.8281 19.5874 21.9925 17.9038 22.7912C16.2201 23.59 14.3795 24.0029 12.516 24C5.601 24 0 18.429 0 11.565C0 6.39896 3.171 1.96796 7.686 0.0899595C7.91091 -0.00509275 8.16058 -0.0246018 8.39753 0.034363C8.63447 0.0933277 8.84588 0.227582 9 0.41696V0.41696Z" fill="white"/>
<path d="M16.1912 4.72195C16.2127 4.65699 16.2541 4.60047 16.3096 4.5604C16.3651 4.52034 16.4318 4.49877 16.5002 4.49877C16.5686 4.49877 16.6353 4.52034 16.6908 4.5604C16.7463 4.60047 16.7877 4.65699 16.8092 4.72195L17.3897 6.46495C17.6492 7.24195 18.2582 7.85095 19.0352 8.11045L20.7782 8.69095C20.8432 8.71246 20.8997 8.7539 20.9398 8.80937C20.9798 8.86484 21.0014 8.93153 21.0014 8.99995C21.0014 9.06838 20.9798 9.13507 20.9398 9.19054C20.8997 9.24601 20.8432 9.28744 20.7782 9.30895L19.0352 9.88945C18.652 10.0171 18.3038 10.2323 18.0182 10.5179C17.7325 10.8035 17.5174 11.1517 17.3897 11.535L16.8092 13.278C16.7877 13.3429 16.7463 13.3994 16.6908 13.4395C16.6353 13.4796 16.5686 13.5011 16.5002 13.5011C16.4318 13.5011 16.3651 13.4796 16.3096 13.4395C16.2541 13.3994 16.2127 13.3429 16.1912 13.278L15.6107 11.535C15.483 11.1517 15.2679 10.8035 14.9822 10.5179C14.6966 10.2323 14.3484 10.0171 13.9652 9.88945L12.2222 9.30895C12.1572 9.28744 12.1007 9.24601 12.0607 9.19054C12.0206 9.13507 11.999 9.06838 11.999 8.99995C11.999 8.93153 12.0206 8.86484 12.0607 8.80937C12.1007 8.7539 12.1572 8.71246 12.2222 8.69095L13.9652 8.11045C14.3484 7.98278 14.6966 7.76761 14.9822 7.48199C15.2679 7.19637 15.483 6.84816 15.6107 6.46495L16.1912 4.72195V4.72195ZM20.7947 0.148451C20.8095 0.105741 20.8373 0.0687051 20.8741 0.0424936C20.9109 0.0162821 20.955 0.00219727 21.0002 0.00219727C21.0454 0.00219727 21.0895 0.0162821 21.1263 0.0424936C21.1631 0.0687051 21.1909 0.105741 21.2057 0.148451L21.5927 1.30945C21.7652 1.82845 22.1717 2.23495 22.6907 2.40745L23.8517 2.79445C23.8944 2.80926 23.9314 2.83701 23.9577 2.87384C23.9839 2.91067 23.998 2.95475 23.998 2.99995C23.998 3.04516 23.9839 3.08924 23.9577 3.12607C23.9314 3.1629 23.8944 3.19064 23.8517 3.20545L22.6907 3.59245C22.4349 3.67754 22.2025 3.82108 22.0119 4.01168C21.8213 4.20227 21.6778 4.43468 21.5927 4.69045L21.2057 5.85145C21.1909 5.89416 21.1631 5.9312 21.1263 5.95741C21.0895 5.98362 21.0454 5.99771 21.0002 5.99771C20.955 5.99771 20.9109 5.98362 20.8741 5.95741C20.8373 5.9312 20.8095 5.89416 20.7947 5.85145L20.4077 4.69045C20.3226 4.43468 20.1791 4.20227 19.9885 4.01168C19.7979 3.82108 19.5655 3.67754 19.3097 3.59245L18.1487 3.20545C18.106 3.19064 18.069 3.1629 18.0427 3.12607C18.0165 3.08924 18.0024 3.04516 18.0024 2.99995C18.0024 2.95475 18.0165 2.91067 18.0427 2.87384C18.069 2.83701 18.106 2.80926 18.1487 2.79445L19.3097 2.40745C19.8287 2.23495 20.2352 1.82845 20.4077 1.30945L20.7947 0.149951V0.148451Z" fill="white"/>
</g>
<defs>
<clipPath id="clip0_709_1842">
<rect width="24" height="24" fill="white"/>
</clipPath>
</defs>
</svg>
