<svg width="16" height="16" viewBox="0 0 16 16" fill="none" xmlns="http://www.w3.org/2000/svg">
<g clip-path="url(#clip0_513_1445)">
<path d="M8.21101 2.04695C8.14492 2.01618 8.07291 2.00024 8.00001 2.00024C7.92711 2.00024 7.8551 2.01618 7.78901 2.04695L0.289011 5.54695C0.200693 5.58817 0.126349 5.65431 0.0751219 5.73722C0.0238946 5.82014 -0.00198212 5.91622 0.000674054 6.01365C0.00333023 6.11108 0.0344035 6.2056 0.0900724 6.28561C0.145741 6.36561 0.223578 6.4276 0.314011 6.46395L7.81401 9.46395C7.9334 9.51179 8.06663 9.51179 8.18601 9.46395L14 7.13995V12.9999C13.7348 12.9999 13.4804 13.1053 13.2929 13.2928C13.1054 13.4804 13 13.7347 13 13.9999V15.9999H16V13.9999C16 13.7347 15.8947 13.4804 15.7071 13.2928C15.5196 13.1053 15.2652 12.9999 15 12.9999V6.73895L15.686 6.46395C15.7764 6.4276 15.8543 6.36561 15.91 6.28561C15.9656 6.2056 15.9967 6.11108 15.9993 6.01365C16.002 5.91622 15.9761 5.82014 15.9249 5.73722C15.8737 5.65431 15.7993 5.58817 15.711 5.54695L8.21101 2.04695ZM8.00001 8.45995L1.75801 5.96495L8.00001 3.05195L14.242 5.96495L8.00001 8.45995Z" fill="#1C74D5"/>
<path d="M4.17599 9.03198C4.1116 9.00772 4.04291 8.99702 3.9742 9.00053C3.90548 9.00404 3.83824 9.0217 3.77666 9.05239C3.71509 9.08309 3.66051 9.12616 3.61634 9.17891C3.57218 9.23166 3.53938 9.29296 3.51999 9.35898L3.01999 11.059C2.98497 11.1783 2.99568 11.3064 3.05004 11.4183C3.10441 11.5302 3.19851 11.6178 3.31399 11.664L7.81399 13.464C7.93337 13.5118 8.0666 13.5118 8.18599 13.464L12.686 11.664C12.8015 11.6178 12.8956 11.5302 12.9499 11.4183C13.0043 11.3064 13.015 11.1783 12.98 11.059L12.48 9.35898C12.4606 9.29296 12.4278 9.23166 12.3836 9.17891C12.3395 9.12616 12.2849 9.08309 12.2233 9.05239C12.1617 9.0217 12.0945 9.00404 12.0258 9.00053C11.9571 8.99702 11.8884 9.00772 11.824 9.03198L7.99999 10.466L4.17599 9.03198ZM4.10799 10.905L4.32799 10.157L7.82399 11.468C7.93744 11.5106 8.06253 11.5106 8.17599 11.468L11.672 10.157L11.892 10.905L7.99999 12.46L4.10799 10.904V10.905Z" fill="#1C74D5"/>
</g>
<defs>
<clipPath id="clip0_513_1445">
<rect width="16" height="16" fill="white"/>
</clipPath>
</defs>
</svg>
