<svg width="16" height="16" viewBox="0 0 16 16" fill="none" xmlns="http://www.w3.org/2000/svg">
<path fill-rule="evenodd" clip-rule="evenodd" d="M11.293 1.29303C11.4805 1.10556 11.7348 1.00024 12 1.00024C12.2652 1.00024 12.5195 1.10556 12.707 1.29303L14.707 3.29303C14.8945 3.48056 14.9998 3.73487 14.9998 4.00003C14.9998 4.26519 14.8945 4.5195 14.707 4.70703L5.707 13.707C5.59752 13.8168 5.464 13.8997 5.317 13.949L2.317 14.949C2.14074 15.008 1.95153 15.0168 1.7706 14.9742C1.58966 14.9317 1.42417 14.8395 1.29268 14.7082C1.1612 14.5768 1.06894 14.4114 1.02625 14.2304C0.983555 14.0495 0.992126 13.8603 1.051 13.684L2.051 10.684C2.1002 10.5367 2.18305 10.4028 2.293 10.293L11.293 1.29303ZM12 2.00003L14 4.00003L5 13L2 14L3 11L12 2.00003Z" fill="white"/>
<path fill-rule="evenodd" clip-rule="evenodd" d="M12.146 6.354L9.646 3.854L10.354 3.146L12.854 5.646L12.147 6.354H12.146ZM3 10V10.5C3 10.6326 3.05268 10.7598 3.14645 10.8535C3.24021 10.9473 3.36739 11 3.5 11H4V11.5C4 11.6326 4.05268 11.7598 4.14645 11.8535C4.24021 11.9473 4.36739 12 4.5 12H5V12.5C5 12.6326 5.05268 12.7598 5.14645 12.8535C5.24021 12.9473 5.36739 13 5.5 13H6V11.5C6 11.3674 5.94732 11.2402 5.85355 11.1464C5.75979 11.0527 5.63261 11 5.5 11H5V10.5C5 10.3674 4.94732 10.2402 4.85355 10.1464C4.75979 10.0527 4.63261 10 4.5 10H3Z" fill="white"/>
</svg>
