<svg width="16" height="16" viewBox="0 0 16 16" fill="none" xmlns="http://www.w3.org/2000/svg">
<path fill-rule="evenodd" clip-rule="evenodd" d="M11.293 1.29279C11.4805 1.10532 11.7348 1 12 1C12.2652 1 12.5195 1.10532 12.707 1.29279L14.707 3.29279C14.8945 3.48031 14.9998 3.73462 14.9998 3.99979C14.9998 4.26495 14.8945 4.51926 14.707 4.70679L5.707 13.7068C5.59752 13.8166 5.464 13.8994 5.317 13.9488L2.317 14.9488C2.14074 15.0078 1.95153 15.0165 1.7706 14.974C1.58966 14.9314 1.42417 14.8393 1.29268 14.7079C1.1612 14.5765 1.06894 14.4111 1.02625 14.2302C0.983555 14.0493 0.992126 13.8601 1.051 13.6838L2.051 10.6838C2.1002 10.5364 2.18305 10.4026 2.293 10.2928L11.293 1.29279ZM12 1.99979L14 3.99979L5 12.9998L2 13.9998L3 10.9998L12 1.99979Z" fill="#1C74D5"/>
<path fill-rule="evenodd" clip-rule="evenodd" d="M12.146 6.35448L9.646 3.85448L10.354 3.14648L12.854 5.64648L12.147 6.35448H12.146ZM3 10.0005V10.5005C3 10.6331 3.05268 10.7603 3.14645 10.854C3.24021 10.9478 3.36739 11.0005 3.5 11.0005H4V11.5005C4 11.6331 4.05268 11.7603 4.14645 11.854C4.24021 11.9478 4.36739 12.0005 4.5 12.0005H5V12.5005C5 12.6331 5.05268 12.7603 5.14645 12.854C5.24021 12.9478 5.36739 13.0005 5.5 13.0005H6V11.5005C6 11.3679 5.94732 11.2407 5.85355 11.1469C5.75979 11.0532 5.63261 11.0005 5.5 11.0005H5V10.5005C5 10.3679 4.94732 10.2407 4.85355 10.1469C4.75979 10.0532 4.63261 10.0005 4.5 10.0005H3Z" fill="#1C74D5"/>
</svg>
