<svg width="16" height="13" viewBox="0 0 16 13" fill="none" xmlns="http://www.w3.org/2000/svg">
<path d="M7.76777 5.68781C7.29893 6.15665 6.66304 6.42004 6 6.42004C5.33696 6.42004 4.70107 6.15665 4.23223 5.68781C3.76339 5.21897 3.5 4.58309 3.5 3.92004C3.5 3.257 3.76339 2.62112 4.23223 2.15228C4.70107 1.68344 5.33696 1.42004 6 1.42004C6.66304 1.42004 7.29893 1.68344 7.76777 2.15228C8.23661 2.62112 8.5 3.257 8.5 3.92004C8.5 4.58309 8.23661 5.21897 7.76777 5.68781ZM1.00451 12.42C1.00252 12.42 0.998483 12.4198 0.992655 12.4194C0.978604 12.4184 0.955267 12.4161 0.925949 12.4112C0.864946 12.4011 0.791249 12.3817 0.723607 12.3478C0.657922 12.315 0.607447 12.2736 0.572275 12.2208C0.53919 12.1712 0.5 12.0826 0.5 11.92C0.5 11.5484 0.700272 10.6769 1.47855 9.8986C2.24218 9.13497 3.60545 8.42004 6 8.42004C8.39455 8.42004 9.75782 9.13497 10.5214 9.8986C11.2997 10.6769 11.5 11.5484 11.5 11.92C11.5 12.0826 11.4608 12.1712 11.4277 12.2208C11.3926 12.2736 11.3421 12.315 11.2764 12.3478C11.2088 12.3817 11.1351 12.4011 11.074 12.4112C11.0447 12.4161 11.0214 12.4184 11.0073 12.4194C11.0015 12.4198 10.9975 12.42 10.9955 12.42H1.00451Z" stroke="#1C74D5"/>
</svg>
