<svg width="24" height="22" viewBox="0 0 24 22" fill="none" xmlns="http://www.w3.org/2000/svg">
<path d="M7.5 0.5C6.70435 0.5 5.94129 0.816071 5.37868 1.37868C4.81607 1.94129 4.5 2.70435 4.5 3.5V6.5H3C2.20435 6.5 1.44129 6.81607 0.87868 7.37868C0.316071 7.94129 0 8.70435 0 9.5L0 14C0 14.7956 0.316071 15.5587 0.87868 16.1213C1.44129 16.6839 2.20435 17 3 17H4.5V18.5C4.5 19.2956 4.81607 20.0587 5.37868 20.6213C5.94129 21.1839 6.70435 21.5 7.5 21.5H16.5C17.2956 21.5 18.0587 21.1839 18.6213 20.6213C19.1839 20.0587 19.5 19.2956 19.5 18.5V17H21C21.7956 17 22.5587 16.6839 23.1213 16.1213C23.6839 15.5587 24 14.7956 24 14V9.5C24 8.70435 23.6839 7.94129 23.1213 7.37868C22.5587 6.81607 21.7956 6.5 21 6.5H19.5V3.5C19.5 2.70435 19.1839 1.94129 18.6213 1.37868C18.0587 0.816071 17.2956 0.5 16.5 0.5H7.5ZM6 3.5C6 3.10218 6.15804 2.72064 6.43934 2.43934C6.72064 2.15804 7.10218 2 7.5 2H16.5C16.8978 2 17.2794 2.15804 17.5607 2.43934C17.842 2.72064 18 3.10218 18 3.5V6.5H6V3.5ZM7.5 11C6.70435 11 5.94129 11.3161 5.37868 11.8787C4.81607 12.4413 4.5 13.2044 4.5 14V15.5H3C2.60218 15.5 2.22064 15.342 1.93934 15.0607C1.65804 14.7794 1.5 14.3978 1.5 14V9.5C1.5 9.10218 1.65804 8.72064 1.93934 8.43934C2.22064 8.15804 2.60218 8 3 8H21C21.3978 8 21.7794 8.15804 22.0607 8.43934C22.342 8.72064 22.5 9.10218 22.5 9.5V14C22.5 14.3978 22.342 14.7794 22.0607 15.0607C21.7794 15.342 21.3978 15.5 21 15.5H19.5V14C19.5 13.2044 19.1839 12.4413 18.6213 11.8787C18.0587 11.3161 17.2956 11 16.5 11H7.5ZM18 14V18.5C18 18.8978 17.842 19.2794 17.5607 19.5607C17.2794 19.842 16.8978 20 16.5 20H7.5C7.10218 20 6.72064 19.842 6.43934 19.5607C6.15804 19.2794 6 18.8978 6 18.5V14C6 13.6022 6.15804 13.2206 6.43934 12.9393C6.72064 12.658 7.10218 12.5 7.5 12.5H16.5C16.8978 12.5 17.2794 12.658 17.5607 12.9393C17.842 13.2206 18 13.6022 18 14Z" fill="#1C74D5"/>
</svg>
