<svg width="32" height="32" viewBox="0 0 32 32" fill="none" xmlns="http://www.w3.org/2000/svg">
<rect width="32" height="32" rx="4" fill="#DBE9F8"/>
<g clip-path="url(#clip0_237_1651)">
<path d="M7.75 16C7.94891 16 8.13968 15.921 8.28033 15.7803C8.42098 15.6397 8.5 15.4489 8.5 15.25C8.5 15.0511 8.42098 14.8603 8.28033 14.7197C8.13968 14.579 7.94891 14.5 7.75 14.5C7.55109 14.5 7.36032 14.579 7.21967 14.7197C7.07902 14.8603 7 15.0511 7 15.25C7 15.4489 7.07902 15.6397 7.21967 15.7803C7.36032 15.921 7.55109 16 7.75 16Z" fill="#1C74D5"/>
<path d="M11.5 5.5C10.7044 5.5 9.94129 5.81607 9.37868 6.37868C8.81607 6.94129 8.5 7.70435 8.5 8.5V11.5H7C6.20435 11.5 5.44129 11.8161 4.87868 12.3787C4.31607 12.9413 4 13.7044 4 14.5L4 19C4 19.7956 4.31607 20.5587 4.87868 21.1213C5.44129 21.6839 6.20435 22 7 22H8.5V23.5C8.5 24.2956 8.81607 25.0587 9.37868 25.6213C9.94129 26.1839 10.7044 26.5 11.5 26.5H20.5C21.2956 26.5 22.0587 26.1839 22.6213 25.6213C23.1839 25.0587 23.5 24.2956 23.5 23.5V22H25C25.7956 22 26.5587 21.6839 27.1213 21.1213C27.6839 20.5587 28 19.7956 28 19V14.5C28 13.7044 27.6839 12.9413 27.1213 12.3787C26.5587 11.8161 25.7956 11.5 25 11.5H23.5V8.5C23.5 7.70435 23.1839 6.94129 22.6213 6.37868C22.0587 5.81607 21.2956 5.5 20.5 5.5H11.5ZM10 8.5C10 8.10218 10.158 7.72064 10.4393 7.43934C10.7206 7.15804 11.1022 7 11.5 7H20.5C20.8978 7 21.2794 7.15804 21.5607 7.43934C21.842 7.72064 22 8.10218 22 8.5V11.5H10V8.5ZM11.5 16C10.7044 16 9.94129 16.3161 9.37868 16.8787C8.81607 17.4413 8.5 18.2044 8.5 19V20.5H7C6.60218 20.5 6.22064 20.342 5.93934 20.0607C5.65804 19.7794 5.5 19.3978 5.5 19V14.5C5.5 14.1022 5.65804 13.7206 5.93934 13.4393C6.22064 13.158 6.60218 13 7 13H25C25.3978 13 25.7794 13.158 26.0607 13.4393C26.342 13.7206 26.5 14.1022 26.5 14.5V19C26.5 19.3978 26.342 19.7794 26.0607 20.0607C25.7794 20.342 25.3978 20.5 25 20.5H23.5V19C23.5 18.2044 23.1839 17.4413 22.6213 16.8787C22.0587 16.3161 21.2956 16 20.5 16H11.5ZM22 19V23.5C22 23.8978 21.842 24.2794 21.5607 24.5607C21.2794 24.842 20.8978 25 20.5 25H11.5C11.1022 25 10.7206 24.842 10.4393 24.5607C10.158 24.2794 10 23.8978 10 23.5V19C10 18.6022 10.158 18.2206 10.4393 17.9393C10.7206 17.658 11.1022 17.5 11.5 17.5H20.5C20.8978 17.5 21.2794 17.658 21.5607 17.9393C21.842 18.2206 22 18.6022 22 19Z" fill="#1C74D5"/>
</g>
<defs>
<clipPath id="clip0_237_1651">
<rect width="24" height="24" fill="white" transform="translate(4 4)"/>
</clipPath>
</defs>
</svg>
