<svg width="17" height="14" viewBox="0 0 17 14" fill="none" xmlns="http://www.w3.org/2000/svg">
<path d="M8.20996 7.16792L12.25 3.12105L10.1104 0.974562C9.68652 0.550734 9.23307 0.265903 8.75 0.12007C8.26693 -0.0303207 7.78613 -0.0394353 7.30762 0.0927262C6.8291 0.22033 6.38704 0.486932 5.98145 0.892531C5.57585 1.29813 5.30697 1.74019 5.1748 2.2187C5.0472 2.69266 5.05631 3.17346 5.20215 3.66109C5.34798 4.14416 5.63281 4.59761 6.05664 5.02144L8.20996 7.16792ZM8.92773 7.89253L11.0811 10.0459C11.5003 10.4651 11.9515 10.75 12.4346 10.9003C12.9176 11.0462 13.3984 11.0553 13.877 10.9277C14.3555 10.7955 14.7998 10.5266 15.21 10.121C15.6156 9.72 15.8822 9.28023 16.0098 8.80171C16.1419 8.32319 16.1328 7.8424 15.9824 7.35933C15.8366 6.8717 15.5518 6.41597 15.1279 5.99214L12.9746 3.83882L8.92773 7.89253ZM0 9.64937H7.08887C7.01139 9.07059 6.80631 8.54878 6.47363 8.08394C6.14095 7.61909 5.7194 7.24995 5.20898 6.97652C4.70312 6.70308 4.14941 6.56636 3.54785 6.56636C2.94173 6.56636 2.38346 6.70308 1.87305 6.97652C1.36719 7.24995 0.947917 7.61909 0.615234 8.08394C0.282552 8.54878 0.077474 9.07059 0 9.64937ZM0 10.6474C0.077474 11.2307 0.282552 11.7548 0.615234 12.2197C0.947917 12.6845 1.36719 13.0537 1.87305 13.3271C2.38346 13.6005 2.94173 13.7373 3.54785 13.7373C4.14941 13.7373 4.70312 13.6005 5.20898 13.3271C5.71484 13.0537 6.13411 12.6822 6.4668 12.2128C6.79948 11.748 7.00684 11.2262 7.08887 10.6474H0Z" fill="white"/>
</svg>
