<svg width="24" height="24" viewBox="0 0 24 24" fill="none" xmlns="http://www.w3.org/2000/svg">
<path d="M4.53026 18.7386L7.33983 18.1918C8.08267 18.0505 8.62271 17.7702 8.95995 17.351C9.29719 16.9317 9.46581 16.3278 9.46581 15.5394V7.20642C9.46581 6.73702 9.36327 6.32686 9.15819 5.97595C8.95767 5.62504 8.67512 5.35388 8.31053 5.16248C7.94595 4.96651 7.51984 4.86853 7.03221 4.86853C6.41242 4.86853 5.85643 5.07133 5.36424 5.47693C4.87661 5.87797 4.55077 6.40889 4.3867 7.0697L2.12401 16.1752C1.97818 16.7676 1.98501 17.2758 2.14452 17.6996C2.30402 18.128 2.58885 18.4379 2.99901 18.6293C3.41372 18.8207 3.92414 18.8571 4.53026 18.7386ZM18.2158 18.7386C18.8219 18.8571 19.3301 18.8207 19.7402 18.6293C20.1549 18.4379 20.442 18.128 20.6015 17.6996C20.7611 17.2758 20.7679 16.7676 20.6221 16.1752L18.3594 7.0697C18.1907 6.40889 17.8626 5.87797 17.375 5.47693C16.8874 5.07133 16.3336 4.86853 15.7139 4.86853C15.2262 4.86853 14.7978 4.96651 14.4287 5.16248C14.0641 5.35388 13.7793 5.62504 13.5742 5.97595C13.3737 6.32686 13.2734 6.73702 13.2734 7.20642V15.5394C13.2734 16.3278 13.442 16.9317 13.7793 17.351C14.1211 17.7702 14.6611 18.0505 15.3994 18.1918L18.2158 18.7386ZM5.2617 15.4984C5.12043 15.5258 4.98371 15.4984 4.85155 15.4164C4.71939 15.3344 4.63963 15.2204 4.61229 15.0746C4.58039 14.9288 4.60545 14.792 4.68749 14.6644C4.77407 14.5368 4.89029 14.4594 5.03612 14.432L7.18944 13.9672L5.41893 12.3881C5.30956 12.2924 5.25031 12.167 5.2412 12.0121C5.23208 11.8571 5.27765 11.7227 5.37792 11.6088C5.47362 11.4994 5.59894 11.4424 5.75389 11.4379C5.9134 11.4333 6.04784 11.4789 6.15721 11.5746L8.50194 13.6937L9.46581 13.4886V14.6097L5.2617 15.4984ZM13.2734 14.6097V13.4886L14.2373 13.6937L16.5889 11.5746C16.6937 11.4789 16.8236 11.4333 16.9785 11.4379C17.138 11.4424 17.2656 11.4994 17.3613 11.6088C17.4661 11.7227 17.5117 11.8571 17.498 12.0121C17.4889 12.167 17.4297 12.2924 17.3203 12.3881L15.5566 13.9672L17.7099 14.432C17.8512 14.4594 17.9629 14.5368 18.0449 14.6644C18.1315 14.792 18.1611 14.9288 18.1338 15.0746C18.1019 15.2204 18.0198 15.3344 17.8877 15.4164C17.7555 15.4984 17.6188 15.5258 17.4775 15.4984L13.2734 14.6097ZM13.2734 13.4886V14.6097L11.373 14.1996L9.46581 14.6097V13.4886L10.8193 13.1947V5.62048C10.8193 5.47009 10.874 5.34021 10.9834 5.23083C11.0928 5.12146 11.2226 5.06677 11.373 5.06677C11.5234 5.06677 11.651 5.12146 11.7558 5.23083C11.8652 5.34021 11.9199 5.47009 11.9199 5.62048V13.1947L13.2734 13.4886Z" fill="white" fill-opacity="0.6"/>
</svg>
