<svg width="23" height="20" viewBox="0 0 23 20" fill="none" xmlns="http://www.w3.org/2000/svg">
<path d="M5.00008 0C2.92898 0 1.25008 3.35781 1.25008 7.5V14.2215C1.25008 15.8277 0.867266 16.6734 0.0324996 19.1773C-0.102266 19.582 0.198906 20 0.625469 20H11.5989C12.1368 20 12.6145 19.6559 12.7848 19.1453C13.286 17.6422 13.7501 16.3172 13.7501 14.2215V7.5C13.7501 4.23438 14.6747 1.50312 16.111 0H5.00008ZM3.75008 8.75C3.40477 8.75 3.12508 8.47031 3.12508 8.125C3.12508 7.77969 3.40477 7.5 3.75008 7.5C4.09539 7.5 4.37508 7.77969 4.37508 8.125C4.37508 8.47031 4.09539 8.75 3.75008 8.75ZM6.25008 8.75C5.90477 8.75 5.62508 8.47031 5.62508 8.125C5.62508 7.77969 5.90477 7.5 6.25008 7.5C6.59539 7.5 6.87508 7.77969 6.87508 8.125C6.87508 8.47031 6.59539 8.75 6.25008 8.75ZM8.75008 8.75C8.40477 8.75 8.12508 8.47031 8.12508 8.125C8.12508 7.77969 8.40477 7.5 8.75008 7.5C9.09539 7.5 9.37508 7.77969 9.37508 8.125C9.37508 8.47031 9.09539 8.75 8.75008 8.75ZM11.2501 8.75C10.9048 8.75 10.6251 8.47031 10.6251 8.125C10.6251 7.77969 10.9048 7.5 11.2501 7.5C11.5954 7.5 11.8751 7.77969 11.8751 8.125C11.8751 8.47031 11.5954 8.75 11.2501 8.75ZM18.7501 0C16.679 0 15.0001 3.35781 15.0001 7.5C15.0001 11.6422 16.679 15 18.7501 15C20.8212 15 22.5001 11.6422 22.5001 7.5C22.5001 3.35781 20.8212 0 18.7501 0ZM18.7501 10C18.0598 10 17.5001 8.88086 17.5001 7.5C17.5001 6.11914 18.0598 5 18.7501 5C19.4403 5 20.0001 6.11914 20.0001 7.5C20.0001 8.88086 19.4403 10 18.7501 10Z" fill="white" fill-opacity="0.6"/>
</svg>
