<svg width="24" height="24" viewBox="0 0 24 24" fill="none" xmlns="http://www.w3.org/2000/svg">
<g clip-path="url(#clip0_709_1840)">
<path d="M11.469 1.719C11.5387 1.64915 11.6214 1.59374 11.7125 1.55593C11.8037 1.51812 11.9013 1.49866 12 1.49866C12.0987 1.49866 12.1963 1.51812 12.2874 1.55593C12.3786 1.59374 12.4613 1.64915 12.531 1.719L14.781 3.969C14.8507 4.03873 14.906 4.12151 14.9438 4.21262C14.9815 4.30373 15.0009 4.40138 15.0009 4.5C15.0009 4.59861 14.9815 4.69626 14.9438 4.78737C14.906 4.87848 14.8507 4.96127 14.781 5.031C14.7113 5.10073 14.6285 5.15604 14.5374 5.19378C14.4463 5.23152 14.3486 5.25095 14.25 5.25095C14.1514 5.25095 14.0537 5.23152 13.9626 5.19378C13.8715 5.15604 13.7887 5.10073 13.719 5.031L12.75 4.0605V6.75C12.75 6.94891 12.671 7.13968 12.5303 7.28033C12.3897 7.42098 12.1989 7.5 12 7.5C11.8011 7.5 11.6103 7.42098 11.4697 7.28033C11.329 7.13968 11.25 6.94891 11.25 6.75V4.0605L10.281 5.031C10.2113 5.10073 10.1285 5.15604 10.0374 5.19378C9.94627 5.23152 9.84862 5.25095 9.75 5.25095C9.65138 5.25095 9.55373 5.23152 9.46262 5.19378C9.37152 5.15604 9.28873 5.10073 9.219 5.031C9.14927 4.96127 9.09395 4.87848 9.05621 4.78737C9.01848 4.69626 8.99905 4.59861 8.99905 4.5C8.99905 4.40138 9.01848 4.30373 9.05621 4.21262C9.09395 4.12151 9.14927 4.03873 9.219 3.969L11.469 1.719ZM3.5145 6.5145C3.65515 6.37389 3.84588 6.29491 4.04475 6.29491C4.24362 6.29491 4.43435 6.37389 4.575 6.5145L6.696 8.6355C6.83262 8.77695 6.90821 8.9664 6.90651 9.16305C6.9048 9.3597 6.82592 9.5478 6.68686 9.68686C6.54781 9.82592 6.3597 9.90479 6.16305 9.9065C5.9664 9.90821 5.77695 9.83262 5.6355 9.696L3.5145 7.575C3.3739 7.43435 3.29491 7.24362 3.29491 7.04475C3.29491 6.84587 3.3739 6.65514 3.5145 6.5145ZM20.4855 6.5145C20.6261 6.65514 20.7051 6.84587 20.7051 7.04475C20.7051 7.24362 20.6261 7.43435 20.4855 7.575L18.3645 9.696C18.2953 9.76763 18.2126 9.82477 18.1211 9.86407C18.0295 9.90338 17.9311 9.92407 17.8316 9.92493C17.732 9.9258 17.6332 9.90682 17.541 9.86911C17.4489 9.8314 17.3651 9.77571 17.2947 9.70529C17.2243 9.63487 17.1686 9.55113 17.1309 9.45896C17.0932 9.36679 17.0742 9.26803 17.0751 9.16845C17.0759 9.06886 17.0966 8.97045 17.1359 8.87894C17.1752 8.78744 17.2324 8.70468 17.304 8.6355L19.425 6.5145C19.5656 6.37389 19.7564 6.29491 19.9553 6.29491C20.1541 6.29491 20.3449 6.37389 20.4855 6.5145V6.5145ZM17.5635 17.25C17.9313 16.3393 18.0698 15.3522 17.967 14.3754C17.8643 13.3986 17.5232 12.462 16.9739 11.6477C16.4246 10.8335 15.6838 10.1666 14.8166 9.70553C13.9494 9.24446 12.9822 9.00334 12 9.00334C11.0178 9.00334 10.0506 9.24446 9.1834 9.70553C8.31616 10.1666 7.57537 10.8335 7.02607 11.6477C6.47677 12.462 6.13575 13.3986 6.03295 14.3754C5.93016 15.3522 6.06873 16.3393 6.4365 17.25H0.75C0.551088 17.25 0.360322 17.329 0.21967 17.4697C0.0790176 17.6103 0 17.8011 0 18C0 18.1989 0.0790176 18.3897 0.21967 18.5303C0.360322 18.671 0.551088 18.75 0.75 18.75H23.25C23.4489 18.75 23.6397 18.671 23.7803 18.5303C23.921 18.3897 24 18.1989 24 18C24 17.8011 23.921 17.6103 23.7803 17.4697C23.6397 17.329 23.4489 17.25 23.25 17.25H17.565H17.5635ZM0 15C0 14.8011 0.0790176 14.6103 0.21967 14.4697C0.360322 14.329 0.551088 14.25 0.75 14.25H3.75C3.94891 14.25 4.13968 14.329 4.28033 14.4697C4.42098 14.6103 4.5 14.8011 4.5 15C4.5 15.1989 4.42098 15.3897 4.28033 15.5303C4.13968 15.671 3.94891 15.75 3.75 15.75H0.75C0.551088 15.75 0.360322 15.671 0.21967 15.5303C0.0790176 15.3897 0 15.1989 0 15ZM19.5 15C19.5 14.8011 19.579 14.6103 19.7197 14.4697C19.8603 14.329 20.0511 14.25 20.25 14.25H23.25C23.4489 14.25 23.6397 14.329 23.7803 14.4697C23.921 14.6103 24 14.8011 24 15C24 15.1989 23.921 15.3897 23.7803 15.5303C23.6397 15.671 23.4489 15.75 23.25 15.75H20.25C20.0511 15.75 19.8603 15.671 19.7197 15.5303C19.579 15.3897 19.5 15.1989 19.5 15Z" fill="white"/>
</g>
<defs>
<clipPath id="clip0_709_1840">
<rect width="24" height="24" fill="white"/>
</clipPath>
</defs>
</svg>
