<svg width="13" height="16" viewBox="0 0 13 16" fill="none" xmlns="http://www.w3.org/2000/svg">
<path d="M6.864 0.0460232C5.908 -0.192977 5.02 0.530023 4.956 1.46602C4.884 2.51702 4.726 3.48202 4.528 4.05602C4.403 4.41602 4.049 5.06902 3.488 5.69502C2.931 6.31802 2.206 6.87302 1.357 7.10502C0.685 7.28802 0 7.87002 0 8.72002V12.721C0 13.566 0.682 14.185 1.448 14.266C2.518 14.38 3.012 14.681 3.516 14.989L3.564 15.019C3.836 15.184 4.142 15.367 4.534 15.503C4.931 15.639 5.395 15.72 6 15.72H9.5C10.437 15.72 11.099 15.243 11.434 14.656C11.5959 14.379 11.6834 14.0648 11.688 13.744C11.688 13.592 11.665 13.432 11.611 13.28C11.812 13.017 11.991 12.702 12.099 12.379C12.209 12.049 12.271 11.617 12.103 11.23C12.172 11.1 12.223 10.961 12.262 10.827C12.339 10.557 12.375 10.259 12.375 9.97002C12.375 9.68202 12.339 9.38502 12.262 9.11402C12.227 8.98944 12.1808 8.86828 12.124 8.75202C12.2991 8.50289 12.4118 8.21533 12.4525 7.91356C12.4932 7.61179 12.4608 7.30465 12.358 7.01802C12.152 6.42602 11.676 5.91802 11.158 5.74602C10.311 5.46402 9.355 5.47002 8.642 5.53502C8.49397 5.54834 8.34627 5.56501 8.199 5.58502C8.54591 4.09941 8.52462 2.55154 8.137 1.07602C8.06956 0.839612 7.9402 0.625508 7.76228 0.455853C7.58436 0.286197 7.36435 0.16715 7.125 0.111023L6.864 0.0460232ZM9.5 14.721H6C5.49 14.721 5.137 14.652 4.86 14.557C4.579 14.46 4.354 14.329 4.084 14.164L4.044 14.14C3.489 13.801 2.846 13.409 1.554 13.272C1.221 13.236 1 12.982 1 12.722V8.72002C1 8.46602 1.226 8.17702 1.62 8.07002C2.715 7.77002 3.597 7.07402 4.234 6.36202C4.869 5.65202 5.298 4.88702 5.472 4.38402C5.715 3.68402 5.879 2.61602 5.954 1.53402C5.979 1.17202 6.314 0.940023 6.621 1.01602L6.883 1.08202C7.043 1.12202 7.141 1.22502 7.171 1.33702C7.57939 2.89304 7.52903 4.53397 7.026 6.06202C6.99753 6.14701 6.99242 6.23809 7.01122 6.32572C7.03002 6.41336 7.07203 6.49433 7.13285 6.56016C7.19368 6.626 7.27108 6.67427 7.35695 6.69993C7.44283 6.72559 7.53403 6.72769 7.621 6.70602L7.624 6.70502L7.638 6.70202L7.696 6.68802C8.03795 6.61541 8.38389 6.56298 8.732 6.53102C9.395 6.47102 10.189 6.47702 10.842 6.69502C11.017 6.75302 11.292 6.99502 11.412 7.34502C11.519 7.65302 11.499 8.01502 11.146 8.36702L10.793 8.72002L11.146 9.07402C11.189 9.11702 11.251 9.21502 11.3 9.38902C11.348 9.55602 11.375 9.75902 11.375 9.97002C11.375 10.182 11.348 10.384 11.3 10.552C11.25 10.726 11.189 10.824 11.146 10.867L10.793 11.22L11.146 11.574C11.193 11.621 11.255 11.751 11.151 12.062C11.0426 12.3636 10.8704 12.6382 10.646 12.867L10.293 13.22L10.646 13.574C10.652 13.579 10.687 13.624 10.687 13.744C10.6826 13.8907 10.6409 14.0338 10.566 14.16C10.401 14.448 10.063 14.72 9.5 14.72V14.721Z" fill="#1C74D5"/>
</svg>
