<svg width="16" height="16" viewBox="0 0 16 16" fill="none" xmlns="http://www.w3.org/2000/svg">
<g clip-path="url(#clip0_500_4084)">
<path d="M2 15C1.73478 15 1.48043 14.8946 1.29289 14.7071C1.10536 14.5196 1 14.2652 1 14L1 2C1 1.73478 1.10536 1.48043 1.29289 1.29289C1.48043 1.10536 1.73478 0.999999 2 0.999999L14 1C14.2652 1 14.5196 1.10536 14.7071 1.29289C14.8946 1.48043 15 1.73478 15 2L15 14C15 14.2652 14.8946 14.5196 14.7071 14.7071C14.5196 14.8946 14.2652 15 14 15L2 15ZM14 16C14.5304 16 15.0391 15.7893 15.4142 15.4142C15.7893 15.0391 16 14.5304 16 14L16 2C16 1.46957 15.7893 0.960859 15.4142 0.585787C15.0391 0.210714 14.5304 -1.28474e-07 14 -1.74846e-07L2 -1.22392e-06C1.46957 -1.27029e-06 0.960861 0.210713 0.585788 0.585785C0.210716 0.960858 1.27029e-06 1.46957 1.22392e-06 2L1.74846e-07 14C1.28474e-07 14.5304 0.210714 15.0391 0.585787 15.4142C0.960859 15.7893 1.46957 16 2 16L14 16Z" fill="#1C74D5"/>
<path d="M5.79497 3.54411C5.70709 3.58361 5.6325 3.64767 5.58016 3.72856C5.52783 3.80946 5.49998 3.90376 5.49997 4.00011L5.49997 12.0001C5.49995 12.0965 5.52778 12.1908 5.58011 12.2718C5.63245 12.3527 5.70706 12.4168 5.79497 12.4563C5.88288 12.4958 5.98033 12.5091 6.07561 12.4945C6.17088 12.4799 6.2599 12.4381 6.33197 12.3741L10.832 8.37411C10.8848 8.3272 10.9272 8.26961 10.9562 8.20514C10.9851 8.14067 11.0001 8.07079 11.0001 8.00011C11.0001 7.92943 10.9851 7.85955 10.9562 7.79508C10.9272 7.73061 10.8848 7.67302 10.832 7.62611L6.33197 3.62611C6.25989 3.56214 6.17085 3.52037 6.07558 3.50582C5.98031 3.49127 5.88286 3.50457 5.79497 3.54411Z" fill="#1C74D5"/>
</g>
<defs>
<clipPath id="clip0_500_4084">
<rect width="16" height="16" fill="white" transform="translate(16 16) rotate(-180)"/>
</clipPath>
</defs>
</svg>
