<svg width="16" height="16" viewBox="0 0 16 16" fill="none" xmlns="http://www.w3.org/2000/svg">
<g clip-path="url(#clip0_500_4081)">
<path d="M14 1C14.2652 1 14.5196 1.10536 14.7071 1.29289C14.8946 1.48043 15 1.73478 15 2V14C15 14.2652 14.8946 14.5196 14.7071 14.7071C14.5196 14.8946 14.2652 15 14 15H2C1.73478 15 1.48043 14.8946 1.29289 14.7071C1.10536 14.5196 1 14.2652 1 14V2C1 1.73478 1.10536 1.48043 1.29289 1.29289C1.48043 1.10536 1.73478 1 2 1H14ZM2 0C1.46957 0 0.960859 0.210714 0.585786 0.585786C0.210714 0.960859 0 1.46957 0 2L0 14C0 14.5304 0.210714 15.0391 0.585786 15.4142C0.960859 15.7893 1.46957 16 2 16H14C14.5304 16 15.0391 15.7893 15.4142 15.4142C15.7893 15.0391 16 14.5304 16 14V2C16 1.46957 15.7893 0.960859 15.4142 0.585786C15.0391 0.210714 14.5304 0 14 0L2 0Z" fill="#1C74D5"/>
<path d="M10.2049 12.4559C10.2928 12.4164 10.3674 12.3523 10.4197 12.2714C10.4721 12.1905 10.4999 12.0962 10.4999 11.9999V3.99989C10.4999 3.90351 10.4721 3.80918 10.4198 3.72824C10.3674 3.64731 10.2928 3.58323 10.2049 3.54371C10.117 3.5042 10.0195 3.49093 9.92427 3.50551C9.829 3.52009 9.73997 3.56189 9.66791 3.62589L5.16791 7.62589C5.11504 7.6728 5.07271 7.73039 5.04373 7.79486C5.01474 7.85933 4.99976 7.92921 4.99976 7.99989C4.99976 8.07057 5.01474 8.14045 5.04373 8.20492C5.07271 8.26939 5.11504 8.32698 5.16791 8.37389L9.66791 12.3739C9.73999 12.4379 9.82903 12.4796 9.9243 12.4942C10.0196 12.5087 10.117 12.4954 10.2049 12.4559Z" fill="#1C74D5"/>
</g>
<defs>
<clipPath id="clip0_500_4081">
<rect width="16" height="16" fill="white"/>
</clipPath>
</defs>
</svg>
